<svg width="1440" height="934" xmlns="http://www.w3.org/2000/svg"><g fill="none" fill-rule="nonzero"><ellipse fill="#0090ED" opacity=".041" style="mix-blend-mode:overlay" cx="102.5" cy="933.5" rx="617.5" ry="616.5"/><circle fill="#0090ED" opacity=".041" style="mix-blend-mode:overlay" cx="1357.5" cy="471.5" r="535.5"/><path d="M-2.157 212.16l773.59 773.984A180.372 180.372 0 0 0 899.002 1039a180.372 180.372 0 0 0 127.573-52.856l773.586-773.983c70.45-70.512 70.45-184.788 0-255.299-70.448-70.483-184.696-70.483-255.143 0L899.004 603.226 252.987-43.138c-70.448-70.483-184.696-70.483-255.144 0C-37.395-7.882-55 38.307-55 84.51c0 46.177 17.618 92.395 52.843 127.65z" fill="#0060DF" opacity=".041"/></g></svg>