<svg xmlns="http://www.w3.org/2000/svg" width="300" height="53" viewBox="0 0 300 53">
  <defs>
    <linearGradient id="lockwise-horizontal-logo-a" x1="72.084%" x2="26.735%" y1="12.313%" y2="89.829%">
      <stop offset="0%" stop-color="#FF980E"/>
      <stop offset="11%" stop-color="#FF851B"/>
      <stop offset="57%" stop-color="#FF3750"/>
      <stop offset="80%" stop-color="#F92261"/>
      <stop offset="100%" stop-color="#F5156C"/>
    </linearGradient>
    <linearGradient id="lockwise-horizontal-logo-b" x1="71.684%" x2="34.627%" y1="-.365%" y2="85.842%">
      <stop offset="0%" stop-color="#FFF261" stop-opacity=".8"/>
      <stop offset="6%" stop-color="#FFF261" stop-opacity=".68"/>
      <stop offset="19%" stop-color="#FFF261" stop-opacity=".48"/>
      <stop offset="31%" stop-color="#FFF261" stop-opacity=".31"/>
      <stop offset="42%" stop-color="#FFF261" stop-opacity=".17"/>
      <stop offset="53%" stop-color="#FFF261" stop-opacity=".08"/>
      <stop offset="63%" stop-color="#FFF261" stop-opacity=".02"/>
      <stop offset="72%" stop-color="#FFF261" stop-opacity="0"/>
    </linearGradient>
    <linearGradient id="lockwise-horizontal-logo-c" x1="50.51%" x2="50.51%" y1="200.063%" y2="-34.412%">
      <stop offset="0%" stop-color="#0090ED"/>
      <stop offset="50%" stop-color="#9059FF"/>
      <stop offset="81%" stop-color="#B833E1"/>
    </linearGradient>
    <linearGradient id="lockwise-horizontal-logo-d" x1="24.563%" x2="79.944%" y1="80.164%" y2="4.856%">
      <stop offset="2%" stop-color="#0090ED"/>
      <stop offset="49%" stop-color="#9059FF"/>
      <stop offset="100%" stop-color="#B833E1"/>
    </linearGradient>
    <linearGradient id="lockwise-horizontal-logo-e" x1="69.207%" x2="32.22%" y1="81.415%" y2="18.585%">
      <stop offset="14%" stop-color="#592ACB" stop-opacity="0"/>
      <stop offset="33%" stop-color="#542BC8" stop-opacity=".03"/>
      <stop offset="53%" stop-color="#462FBF" stop-opacity=".11"/>
      <stop offset="74%" stop-color="#2F35B1" stop-opacity=".25"/>
      <stop offset="95%" stop-color="#0F3D9C" stop-opacity=".44"/>
      <stop offset="100%" stop-color="#054096" stop-opacity=".5"/>
    </linearGradient>
    <linearGradient id="lockwise-horizontal-logo-f" x1="62.404%" x2="35.923%" y1="16.96%" y2="93.672%">
      <stop offset="0%" stop-color="#722291" stop-opacity=".5"/>
      <stop offset="50%" stop-color="#B833E1" stop-opacity="0"/>
    </linearGradient>
    <linearGradient id="lockwise-horizontal-logo-g" x1="86.967%" x2="37.025%" y1="9.095%" y2="60.749%">
      <stop offset="0%" stop-color="#054096" stop-opacity=".5"/>
      <stop offset="3%" stop-color="#0F3D9C" stop-opacity=".44"/>
      <stop offset="17%" stop-color="#2F35B1" stop-opacity=".25"/>
      <stop offset="30%" stop-color="#462FBF" stop-opacity=".11"/>
      <stop offset="43%" stop-color="#542BC8" stop-opacity=".03"/>
      <stop offset="56%" stop-color="#592ACB" stop-opacity="0"/>
    </linearGradient>
  </defs>
  <g fill="none">
    <path fill="url(#lockwise-horizontal-logo-a)" d="M50.4078091,20.1335366 C44.9868083,14.0577541 39.2019092,8.31212653 33.0845987,2.92792683 C29.3647382,-0.120205574 23.9910101,-0.120205574 20.2711497,2.92792683 C14.1536448,8.31421201 8.36874176,14.0620019 2.94793926,20.14 C-0.121027181,23.8346077 -0.121027181,29.1718557 2.94793926,32.8664634 C8.3710398,38.9424389 14.158116,44.6880704 20.2776573,50.0720732 C22.0637588,51.5773058 24.3389561,52.3879688 26.681128,52.3536585 C29.0341329,52.3853177 31.3187404,51.5677075 33.1106291,50.0526829 C36.2993492,47.1958537 39.208243,44.4359756 42.0130152,41.605 C43.0068693,40.4391363 42.9097111,38.7050004 41.791757,37.6558537 L33.1887202,29.6864634 C35.4087146,27.726247 36.6227586,24.8778951 36.494577,21.9303659 C36.2530704,16.8661851 32.2177508,12.7914609 27.1236443,12.4679268 C24.3910086,12.3096461 21.7145052,13.2831204 19.7310195,15.1567073 C17.7114264,17.0536375 16.5834524,19.7035723 16.6205441,22.4641073 C16.6576358,25.2246423 17.8564066,27.843737 19.9262473,29.6864634 L16.8156182,32.485122 C15.8178894,33.4134919 15.7509143,34.9639025 16.664916,35.9737386 C17.5789176,36.9835746 19.138218,37.0819618 20.1735358,36.195122 L23.6160521,33.0926829 L23.7071584,33.0086585 C24.6394512,32.0813465 25.1375335,30.8082535 25.0802603,29.4990244 C25.0319091,28.1806176 24.4329989,26.9417488 23.4273319,26.079878 C21.8431928,24.7537848 21.2621572,22.5858536 21.9728624,20.6530328 C22.6835675,18.7202119 24.5345423,17.4344392 26.6062907,17.4344392 C28.678039,17.4344392 30.5290138,18.7202119 31.239719,20.6530328 C31.9504241,22.5858536 31.3693886,24.7537848 29.7852495,26.079878 C28.7585146,26.9393789 28.1403386,28.1860854 28.0802603,29.5184146 C28.0293056,30.8208684 28.5268457,32.0855498 29.4533623,33.0086585 L29.5119306,33.0668293 L36.7353579,39.7887805 C34.5227766,41.9669512 32.2190889,44.1257317 29.7657267,46.3362195 C27.9411915,47.6935383 25.4340797,47.6935383 23.6095445,46.3362195 C17.6370092,41.0749976 11.9869872,35.4633315 6.68980477,29.5313415 C5.32752144,27.7177683 5.32752144,25.2305244 6.68980477,23.4169512 C11.9837603,17.4819433 17.6339707,11.87009 23.6095445,6.61207317 C25.4327507,5.25797917 27.9360129,5.25797917 29.7592191,6.61207317 C35.7347929,11.87009 41.3850033,17.4819433 46.6789588,23.4169512 C48.042308,25.2277804 48.042308,27.7140489 46.6789588,29.524878 C45.813449,30.4943902 44.9479393,31.4639024 44.0759219,32.3493902 C43.1378764,33.3613847 43.2034313,34.9370421 44.2223427,35.8687195 C45.2412542,36.8003969 46.8276812,36.7352871 47.7657267,35.7232927 C48.6247289,34.7990244 49.5097614,33.8295122 50.3687636,32.8341463 C53.4347998,29.1534431 53.4511572,23.8327678 50.4078091,20.1335366 L50.4078091,20.1335366 Z"/>
    <path fill="url(#lockwise-horizontal-logo-b)" d="M50.4078091,20.1335366 C44.9868083,14.0577541 39.2019092,8.31212653 33.0845987,2.92792683 C29.3647382,-0.120205574 23.9910101,-0.120205574 20.2711497,2.92792683 C14.1536448,8.31421201 8.36874176,14.0620019 2.94793926,20.14 C-0.121027181,23.8346077 -0.121027181,29.1718557 2.94793926,32.8664634 C8.3710398,38.9424389 14.158116,44.6880704 20.2776573,50.0720732 C22.0637588,51.5773058 24.3389561,52.3879688 26.681128,52.3536585 C29.0341329,52.3853177 31.3187404,51.5677075 33.1106291,50.0526829 C36.2993492,47.1958537 39.208243,44.4359756 42.0130152,41.605 C43.0068693,40.4391363 42.9097111,38.7050004 41.791757,37.6558537 L33.1887202,29.6864634 C35.4087146,27.726247 36.6227586,24.8778951 36.494577,21.9303659 C36.2530704,16.8661851 32.2177508,12.7914609 27.1236443,12.4679268 C24.3910086,12.3096461 21.7145052,13.2831204 19.7310195,15.1567073 C17.7114264,17.0536375 16.5834524,19.7035723 16.6205441,22.4641073 C16.6576358,25.2246423 17.8564066,27.843737 19.9262473,29.6864634 L16.8156182,32.485122 C15.8178894,33.4134919 15.7509143,34.9639025 16.664916,35.9737386 C17.5789176,36.9835746 19.138218,37.0819618 20.1735358,36.195122 L23.6160521,33.0926829 L23.7071584,33.0086585 C24.6394512,32.0813465 25.1375335,30.8082535 25.0802603,29.4990244 C25.0319091,28.1806176 24.4329989,26.9417488 23.4273319,26.079878 C21.8431928,24.7537848 21.2621572,22.5858536 21.9728624,20.6530328 C22.6835675,18.7202119 24.5345423,17.4344392 26.6062907,17.4344392 C28.678039,17.4344392 30.5290138,18.7202119 31.239719,20.6530328 C31.9504241,22.5858536 31.3693886,24.7537848 29.7852495,26.079878 C28.7585146,26.9393789 28.1403386,28.1860854 28.0802603,29.5184146 C28.0293056,30.8208684 28.5268457,32.0855498 29.4533623,33.0086585 L29.5119306,33.0668293 L36.7353579,39.7887805 C34.5227766,41.9669512 32.2190889,44.1257317 29.7657267,46.3362195 C27.9411915,47.6935383 25.4340797,47.6935383 23.6095445,46.3362195 C17.6370092,41.0749976 11.9869872,35.4633315 6.68980477,29.5313415 C5.32752144,27.7177683 5.32752144,25.2305244 6.68980477,23.4169512 C11.9837603,17.4819433 17.6339707,11.87009 23.6095445,6.61207317 C25.4327507,5.25797917 27.9360129,5.25797917 29.7592191,6.61207317 C35.7347929,11.87009 41.3850033,17.4819433 46.6789588,23.4169512 C48.042308,25.2277804 48.042308,27.7140489 46.6789588,29.524878 C45.813449,30.4943902 44.9479393,31.4639024 44.0759219,32.3493902 C43.1378764,33.3613847 43.2034313,34.9370421 44.2223427,35.8687195 C45.2412542,36.8003969 46.8276812,36.7352871 47.7657267,35.7232927 C48.6247289,34.7990244 49.5097614,33.8295122 50.3687636,32.8341463 C53.4347998,29.1534431 53.4511572,23.8327678 50.4078091,20.1335366 L50.4078091,20.1335366 Z"/>
    <path fill="url(#lockwise-horizontal-logo-c)" d="M46.6529284,23.4428049 C48.0162777,25.2536341 48.0162777,27.7399025 46.6529284,29.5507317 C45.7874187,30.5202439 44.9219089,31.4897561 44.0498915,32.3752439 C43.4430825,33.0298895 43.2340042,33.9563381 43.5014145,34.8056055 C43.7688247,35.6548729 44.4720976,36.2979351 45.3463169,36.4925568 C46.2205362,36.6871785 47.1328873,36.403792 47.7396963,35.7491463 C48.5986985,34.824878 49.483731,33.8553659 50.3427332,32.86 C53.4793926,29.415 46.6529284,23.4428049 46.6529284,23.4428049 L46.6529284,23.4428049 Z"/>
    <path fill="url(#lockwise-horizontal-logo-d)" d="M36.7353579,39.7887805 C34.5227766,41.9669512 32.2190889,44.1257317 29.7657267,46.3362195 C27.9411915,47.6935383 25.4340797,47.6935383 23.6095445,46.3362195 C17.6370092,41.0749976 11.9869872,35.4633315 6.68980477,29.5313415 C5.32752144,27.7177683 5.32752144,25.2305244 6.68980477,23.4169512 L5.55097614,24.7096341 C2.70899406,27.9151303 2.7680161,32.7360395 5.68763557,35.8719512 C10.3062719,40.8471391 15.1758609,45.5865945 20.2776573,50.0720732 C22.0637588,51.5773058 24.3389561,52.3879688 26.681128,52.3536585 C29.0341329,52.3853177 31.3187404,51.5677075 33.1106291,50.0526829 C34.9262473,48.4239024 36.9436009,46.5430488 38.7527115,44.8108537 C39.1830503,44.4001545 39.4262786,43.8329997 39.4262786,43.2402439 C39.4262786,42.6474881 39.1830503,42.0803333 38.7527115,41.6696341 L36.7353579,39.7887805 Z"/>
    <path fill="url(#lockwise-horizontal-logo-e)" d="M5.71366594,35.8913415 C7.61388286,37.9402439 9.50759219,39.8986585 11.4468547,41.8118293 L12.2212581,40.5579268 C12.8720174,39.5302439 13.5227766,38.5219512 14.2190889,37.5136585 C11.7136659,34.9864634 9.23427332,32.3752439 6.70932755,29.5636585 C5.34704421,27.7500853 5.34704421,25.2628415 6.70932755,23.4492683 L5.57049892,24.7419512 C2.74261421,27.9374709 2.79311422,32.7358416 5.68763557,35.8719512 L5.71366594,35.8913415 Z" opacity=".9"/>
    <path fill="url(#lockwise-horizontal-logo-f)" d="M46.6529284,23.4428049 C48.0162777,25.2536341 48.0162777,27.7399025 46.6529284,29.5507317 C45.7874187,30.5202439 44.9219089,31.4897561 44.0498915,32.3752439 C43.4430825,33.0298895 43.2340042,33.9563381 43.5014145,34.8056055 C43.7688247,35.6548729 44.4720976,36.2979351 45.3463169,36.4925568 C46.2205362,36.6871785 47.1328873,36.403792 47.7396963,35.7491463 C48.5986985,34.824878 49.483731,33.8553659 50.3427332,32.86 C53.4793926,29.415 46.6529284,23.4428049 46.6529284,23.4428049 L46.6529284,23.4428049 Z"/>
    <path fill="url(#lockwise-horizontal-logo-g)" d="M38.7266811,41.6696341 L36.7353579,39.7887805 C34.5227766,41.9669512 32.2190889,44.1257317 29.7592191,46.3362195 C28.6374133,47.1944106 27.2027288,47.5418437 25.8091106,47.2928049 L25.8091106,52.314878 C26.0954447,52.314878 26.3817787,52.3536585 26.6746204,52.3536585 C29.0276253,52.3853177 31.3122328,51.5677075 33.1041215,50.0526829 C34.9197397,48.4239024 36.9370933,46.5430488 38.7462039,44.8108537 C39.1757106,44.3984384 39.4166159,43.8294368 39.4129282,43.2360964 C39.4092406,42.642756 39.1612813,42.0767516 38.7266811,41.6696341 L38.7266811,41.6696341 Z" opacity=".9"/>
    <path fill="#20123A" d="M63.7744035,36.9384146 L67.8416486,36.9384146 L67.8416486,28.5359756 L77.2386117,28.5359756 L77.2386117,24.7871951 L67.8156182,24.7871951 L67.8156182,19.9978049 L77.2125813,19.9978049 L77.2125813,16.1908537 L63.7744035,16.1908537 L63.7744035,36.9384146 Z M82.2234273,14.7171951 C81.5418683,14.7022923 80.8844965,14.9682408 80.4074011,15.4518929 C79.9303057,15.9355449 79.6760441,16.5937583 79.7049892,17.2702439 C79.7734154,18.6110891 80.8879534,19.6633743 82.2396963,19.6633743 C83.5914392,19.6633743 84.7059773,18.6110891 84.7744035,17.2702439 C84.8084436,16.5821861 84.5476586,15.9119679 84.0565921,15.4254668 C83.5655257,14.9389657 82.8900694,14.6816465 82.197397,14.7171951 L82.2234273,14.7171951 Z M80.2190889,36.9384146 L84.2603037,36.9384146 L84.2603037,21.5942683 L80.2190889,21.5942683 L80.2190889,36.9384146 Z M91.2819957,23.9534146 L91.2819957,21.5942683 L87.3774403,21.5942683 L87.3774403,36.9384146 L91.2819957,36.9384146 L91.2819957,28.8397561 C91.2819957,26.2543902 92.5835141,25.2331707 94.6334056,25.2331707 C95.3595579,25.2033048 96.0780712,25.3901557 96.6963124,25.7696341 L98.1279826,21.8915854 C97.3197913,21.4918961 96.4277397,21.2881171 95.5249458,21.2969512 C93.5726681,21.3292683 92.0238612,22.1307317 91.2819957,23.9534146 L91.2819957,23.9534146 Z M106.522777,21.277561 C104.367839,21.2442721 102.290863,22.077597 100.763847,23.5881609 C99.2368306,25.0987248 98.3894654,27.1582331 98.4143167,29.2986585 C98.4143167,33.7584146 101.62256,37.255122 106.607375,37.255122 C109.455971,37.398584 112.172123,36.0497273 113.765727,33.7002439 L110.511931,31.8258537 C109.712151,33.1615588 108.235314,33.9496588 106.672451,33.8747561 C104.599654,34.0045161 102.729526,32.6447564 102.227766,30.6430488 L114.533623,30.6430488 L114.533623,29.15 C114.596701,27.0287701 113.77009,24.9767705 112.251245,23.484167 C110.732399,21.9915634 108.657715,21.1923951 106.522777,21.277561 Z M102.338395,27.56 C102.92395,25.7660716 104.62448,24.5656566 106.522777,24.6062195 C108.422332,24.4740443 110.14084,25.7220869 110.590022,27.56 L102.338395,27.56 Z M118.210412,21.0513415 L118.210412,21.5942683 L115.659436,21.5942683 L115.659436,25.1168293 L118.210412,25.1168293 L118.210412,36.9384146 L122.114967,36.9384146 L122.114967,25.1168293 L125.83731,25.1168293 L125.83731,21.5942683 L122.114967,21.5942683 L122.114967,20.8509756 C122.114967,18.5241463 122.433839,18.1234146 125.180043,18.1234146 L125.830803,18.1234146 L125.830803,14.5426829 L124.802603,14.5426829 C119.785249,14.5426829 118.210412,16.0809756 118.210412,21.0513415 Z M134.941432,21.277561 C130.524299,21.3769718 127.014815,24.9964861 127.081168,29.3842643 C127.14752,33.7720425 130.764864,37.2852429 135.183011,37.2528542 C139.601157,37.2204655 143.165894,33.6546144 143.167028,29.2663415 C143.176614,27.1130752 142.307074,25.0478949 140.75699,23.5424384 C139.206907,22.036982 137.108657,21.2198157 134.941432,21.277561 L134.941432,21.277561 Z M134.941432,33.5580488 C133.186975,33.5895457 131.587559,32.5641111 130.894069,30.9631617 C130.20058,29.3622124 130.550745,27.5036971 131.78017,26.260144 C133.009595,25.0165909 134.874117,24.6349698 136.498387,25.2944427 C138.122657,25.9539155 139.184095,27.5235108 139.184382,29.2663415 C139.196521,30.3879553 138.758638,31.4682351 137.967429,32.2686246 C137.176221,33.069014 136.096775,33.5236713 134.967462,33.5321951 L134.941432,33.5580488 Z M159.436009,21.5942683 L154.796095,21.5942683 L151.542299,26.1186585 L148.288503,21.5942683 L143.590022,21.5942683 L149.062907,29.0853659 L143.277657,36.9578049 L148.034707,36.9578049 L151.503254,32.1554878 L155.049892,36.9578049 L159.839479,36.9578049 L153.937093,29.0853659 L159.436009,21.5942683 Z M171.72885,16.1908537 L169.321041,16.1908537 L169.321041,36.9384146 L182.498915,36.9384146 L182.498915,34.637439 L171.72885,34.637439 L171.72885,16.1908537 Z M191.902386,21.277561 C187.460997,21.2811299 183.863116,24.8594076 183.865511,29.2706469 C183.867906,33.6818862 187.46967,37.2563077 191.911061,37.255119 C196.352452,37.2539304 199.952276,33.6775814 199.952278,29.2663415 C199.980635,27.1368253 199.140521,25.0864661 197.623076,23.581757 C196.10563,22.0770479 194.039901,21.2459529 191.895879,21.277561 L191.902386,21.277561 Z M191.902386,35.0381707 C190.37281,35.049809 188.904939,34.4398425 187.839428,33.3498289 C186.773917,32.2598153 186.203409,30.7845271 186.260304,29.2663415 C186.190186,27.2130784 187.253063,25.2852662 189.032622,24.2380025 C190.81218,23.1907389 193.02513,23.1907389 194.804689,24.2380025 C196.584247,25.2852662 197.647125,27.2130784 197.577007,29.2663415 C197.626739,30.7892464 197.048502,32.2663378 195.976069,33.3558925 C194.903636,34.4454472 193.429926,35.0530637 191.895879,35.0381707 L191.902386,35.0381707 Z M210.35141,35.0381707 C208.804038,35.0400418 207.32055,34.425472 206.23314,33.3320804 C205.14573,32.2386888 204.545249,30.757826 204.566161,29.2210976 C204.525804,27.6932724 205.108332,26.2139997 206.181624,25.1187883 C207.254916,24.0235769 208.728015,23.4052414 210.266811,23.4040244 C212.549469,23.3500368 214.625447,24.7108809 215.472885,26.8167073 L217.62039,25.8795122 C216.360869,22.9974307 213.475163,21.1547453 210.312364,21.2129268 C207.43874,21.2186997 204.786503,22.746687 203.354724,25.2213108 C201.922946,27.6959345 201.929147,30.7412404 203.370993,33.2100913 C204.812839,35.6789421 207.471278,37.1962607 210.344902,37.1904878 C213.574264,37.2643758 216.509469,35.3363227 217.704989,32.3558537 L215.531453,31.4445122 C214.739088,33.6128141 212.667366,35.0585962 210.344902,35.0640244 L210.35141,35.0381707 Z M234.468547,21.5942683 L231.520607,21.5942683 L223.327549,30.2617073 L223.327549,14.5426829 L221.004338,14.5426829 L221.004338,36.9384146 L223.327549,36.9384146 L223.327549,32.9634146 L226.62039,29.4990244 L232.002169,36.9707317 L234.839479,36.9707317 L228.331887,28.0512195 L234.468547,21.5942683 Z M254.095445,33.6743902 L249.481562,21.5942683 L247.288503,21.5942683 L242.563991,33.7584146 L238.659436,21.5942683 L236.225597,21.5942683 L241.295011,36.9384146 L243.585683,36.9384146 L248.342733,24.7742683 L253.099783,36.9384146 L255.214751,36.9384146 L260.577007,21.5942683 L258.136659,21.5942683 L254.095445,33.6743902 Z M264.507592,15.027439 C263.479696,15.027439 262.646421,15.855057 262.646421,16.8759756 C262.646421,17.8968942 263.479696,18.7245122 264.507592,18.7245122 C265.535489,18.7245122 266.368764,17.8968942 266.368764,16.8759756 C266.381571,16.37966 266.187789,15.9000564 265.833096,15.5502184 C265.478404,15.2003804 264.994184,15.0112606 264.494577,15.027439 L264.507592,15.027439 Z M263.329718,36.9384146 L265.711497,36.9384146 L265.711497,21.5942683 L263.329718,21.5942683 L263.329718,36.9384146 Z M275.694143,28.0706098 C273.286334,27.5923171 271.425163,27.2756098 271.425163,25.6856098 C271.425163,24.2636585 272.401302,23.242439 274.776573,23.242439 C276.444145,23.174907 278.034842,23.9418011 279.013015,25.284878 L280.965293,23.9921951 C279.456786,22.1568644 277.158906,21.1441177 274.776573,21.2646341 C271.106291,21.2646341 269.017354,23.3393902 269.017354,25.7243902 C269.017354,28.7945122 271.854664,29.5054878 274.516269,30.0160976 C276.780911,30.475 278.902386,30.817561 278.902386,32.517439 C278.902386,34.0557317 277.639913,35.1932927 275.232104,35.1932927 C273.245746,35.2765582 271.358328,34.3294663 270.247289,32.6919512 L268.21692,34.0557317 C269.590022,35.9947561 271.796095,37.287439 275.180043,37.287439 C279.214751,37.287439 281.277657,34.9282927 281.277657,32.5109756 C281.251627,29.3245122 278.329718,28.5876829 275.668113,28.0706098 L275.694143,28.0706098 Z M299.843818,29.0853659 C299.91338,26.990762 299.10614,24.9611326 297.614097,23.4792185 C296.122054,21.9973044 294.078552,21.1955443 291.969631,21.2646341 C289.810796,21.2255045 287.729034,22.0613771 286.204096,23.5796216 C284.679157,25.0978661 283.842596,27.1675064 283.887202,29.3115854 C283.887202,33.8359756 287.095445,37.2421951 292.05423,37.2421951 C294.977162,37.356778 297.727098,35.8669954 299.212581,33.3641463 L297.208243,32.2007317 C296.207216,34.1150551 294.170887,35.2704112 292.002169,35.1545122 C288.748373,35.1545122 286.470716,33.0797561 286.145336,30.1518293 L299.81128,30.1518293 L299.843818,29.0853659 Z M286.236443,28.09 C286.712745,25.3224839 289.142952,23.3087772 291.969631,23.3393902 C294.789196,23.1867186 297.217273,25.294354 297.442516,28.09 L286.236443,28.09 Z"/>
  </g>
</svg>
