<svg width="237" height="25" xmlns="http://www.w3.org/2000/svg"><path d="M.92 24V2.1h14.1v4.02H5.18v5.07h9.84v3.96H5.18V24H.92zm17.216 0V7.8h4.23V24h-4.23zm-.54-20.76c0-1.56 1.11-2.7 2.64-2.7 1.59 0 2.67 1.14 2.67 2.7 0 1.53-1.08 2.64-2.67 2.64-1.56 0-2.64-1.11-2.64-2.64zM25.842 24V7.8h4.08v2.49c.78-1.92 2.4-2.79 4.47-2.79 1.08 0 2.04.27 2.73.63l-1.5 4.08c-.45-.33-1.23-.57-2.16-.57-2.13 0-3.51 1.08-3.51 3.81V24h-4.11zm18.896.33c-5.22 0-8.58-3.69-8.58-8.4 0-4.71 3.66-8.46 8.49-8.46 4.86 0 8.37 3.51 8.37 8.31v1.56h-12.87c.54 2.1 2.25 3.42 4.65 3.42 1.92 0 3.21-.84 4.02-2.16l3.39 1.98c-1.62 2.28-3.9 3.75-7.47 3.75zm-.09-13.35c-2.1 0-3.72 1.23-4.38 3.12h8.64c-.54-2.01-2.1-3.12-4.26-3.12zm8.996.54V7.8h2.67v-.57c0-5.25 1.65-6.87 6.93-6.87h1.08v3.78h-.69c-2.88 0-3.21.42-3.21 2.88v.78h3.9v3.72h-3.9V24h-4.11V11.52h-2.67zM72.84 24.33c-4.86 0-8.55-3.78-8.55-8.43 0-4.68 3.69-8.43 8.55-8.43 4.83 0 8.58 3.75 8.58 8.43 0 4.65-3.69 8.43-8.58 8.43zm.03-3.93c2.46 0 4.44-2.01 4.44-4.53 0-2.52-1.98-4.53-4.44-4.53-2.49 0-4.44 2.01-4.44 4.53 0 2.52 1.95 4.53 4.44 4.53zm7.466 3.6l6.06-8.31-5.73-7.89h4.92l3.39 4.8 3.42-4.8h4.86l-5.76 7.92 6.18 8.28h-5.01l-3.72-5.07-3.63 5.07h-4.98zm31.644 0V2.1h2.52v19.47h11.28V24h-13.8zm23.4.33c-4.77 0-8.4-3.66-8.4-8.43 0-4.74 3.69-8.43 8.4-8.43 4.74 0 8.43 3.69 8.43 8.43 0 4.68-3.66 8.43-8.43 8.43zm0-2.34c3.39 0 5.94-2.64 5.94-6.09 0-3.45-2.58-6.12-5.94-6.12-3.36 0-5.91 2.67-5.91 6.12 0 3.48 2.55 6.09 5.91 6.09zm20.1 2.34c-4.83 0-8.49-3.75-8.49-8.43 0-4.8 3.72-8.43 8.46-8.43 3.54 0 6.42 2.01 7.65 4.92l-2.25.99c-.96-2.22-2.91-3.6-5.43-3.6-3.39 0-5.97 2.73-5.97 6.12 0 3.36 2.64 6.12 6.06 6.12 2.61 0 4.5-1.62 5.4-3.75l2.28.96c-1.26 3-3.99 5.1-7.71 5.1zm22.71-.33l-5.64-7.89-3.45 3.66V24h-2.43V.36h2.43v16.59l8.58-9.15h3.09l-6.42 6.78 6.81 9.42h-2.97zm14.19.33c-2.37 0-4.8-1.17-6.09-3.21V24h-2.4V.33h2.43v10.32c1.29-1.98 3.69-3.18 6.09-3.18 4.5 0 8.22 3.48 8.22 8.43 0 4.95-3.66 8.43-8.25 8.43zm-.21-2.31c3.36 0 5.94-2.61 5.94-6.15 0-3.45-2.58-6.15-5.94-6.15-3.45 0-6.06 2.79-6.06 6.15 0 3.42 2.61 6.15 6.06 6.15zm19.98 2.31c-4.77 0-8.4-3.66-8.4-8.43 0-4.74 3.69-8.43 8.4-8.43 4.74 0 8.43 3.69 8.43 8.43 0 4.68-3.66 8.43-8.43 8.43zm0-2.34c3.39 0 5.94-2.64 5.94-6.09 0-3.45-2.58-6.12-5.94-6.12-3.36 0-5.91 2.67-5.91 6.12 0 3.48 2.55 6.09 5.91 6.09zm8.76 2.01l6.39-8.28-6.09-7.92h3l4.65 6.12 4.65-6.12h2.97l-6.12 7.92 6.48 8.28h-3.06l-4.95-6.39-4.86 6.39h-3.06z" fill="#203"/></svg>