<svg xmlns="http://www.w3.org/2000/svg" width="224" height="29" viewBox="0 0 224 29">
  <defs>
    <linearGradient id="logo-a" x1="51.026%" x2="53.437%" y1="-24.584%" y2="155.031%">
      <stop offset="0%" stop-color="#00C8D7"/>
      <stop offset="100%" stop-color="#0060DF"/>
    </linearGradient>
  </defs>
  <path fill="url(#logo-a)" fill-rule="evenodd" d="M13.213,8.492 L5.557,8.492 L5.557,14.564 L12.223,14.564 L12.223,18.425 L5.557,18.425 L5.557,27.5 L0.145,27.5 L0.145,4.631 L13.774,4.631 L13.213,8.492 Z M20.571,27.5 L15.357,27.5 L15.357,9.977 L20.571,9.977 L20.571,27.5 Z M17.931,0.737 C18.8330045,0.737 19.5754971,1.01749719 20.1585,1.5785 C20.7415029,2.1395028 21.033,2.84899571 21.033,3.707 C21.033,4.56500429 20.7415029,5.27449719 20.1585,5.8355 C19.5754971,6.3965028 18.8330045,6.677 17.931,6.677 C17.0289955,6.677 16.2920029,6.3965028 15.72,5.8355 C15.1479971,5.27449719 14.862,4.56500429 14.862,3.707 C14.862,2.84899571 15.1479971,2.1395028 15.72,1.5785 C16.2920029,1.01749719 17.0289955,0.737 17.931,0.737 Z M32.867,9.482 C33.5050032,9.482 34.0879974,9.55899923 34.616,9.713 L33.791,14.762 C33.1309967,14.6079992 32.603002,14.531 32.207,14.531 C31.1949949,14.531 30.4140027,14.8829965 29.864,15.587 C29.3139972,16.2910035 28.8850015,17.346993 28.577,18.755 L28.577,27.5 L23.363,27.5 L23.363,9.977 L27.917,9.977 L28.346,13.343 C28.742002,12.1329939 29.341496,11.1870034 30.1445,10.505 C30.947504,9.82299659 31.8549949,9.482 32.867,9.482 Z M50.695,18.392 C50.695,19.1180036 50.6620003,19.7449974 50.596,20.273 L39.772,20.273 C39.9260008,21.7470074 40.3329967,22.780997 40.993,23.375 C41.6530033,23.969003 42.5659942,24.266 43.732,24.266 C44.4360035,24.266 45.1179967,24.1395013 45.778,23.8865 C46.4380033,23.6334987 47.1529961,23.2430026 47.923,22.715 L50.068,25.619 C48.0219898,27.2470081 45.7450125,28.061 43.237,28.061 C40.3989858,28.061 38.2210076,27.2250084 36.703,25.553 C35.1849924,23.8809916 34.426,21.6370141 34.426,18.821 C34.426,17.0389911 34.7449968,15.4385071 35.383,14.0195 C36.0210032,12.6004929 36.9559938,11.4785041 38.188,10.6535 C39.4200062,9.82849587 40.8939914,9.416 42.61,9.416 C45.1400126,9.416 47.1199928,10.2079921 48.55,11.792 C49.9800071,13.3760079 50.695,15.5759859 50.695,18.392 Z M45.58,16.907 C45.5359998,14.2229866 44.5900092,12.881 42.742,12.881 C41.8399955,12.881 41.1470024,13.2054968 40.663,13.8545 C40.1789976,14.5035032 39.8710007,15.5979923 39.739,17.138 L45.58,17.138 L45.58,16.907 Z M60.867,6.314 C60.1189963,6.314 59.5800016,6.48999824 59.25,6.842 C58.9199983,7.19400176 58.755,7.78799582 58.755,8.624 L58.755,9.977 L62.88,9.977 L62.319,13.607 L58.755,13.607 L58.755,27.5 L53.541,27.5 L53.541,13.607 L50.901,13.607 L50.901,9.977 L53.541,9.977 L53.541,8.426 C53.541,6.6659912 54.1184942,5.23050555 55.2735,4.1195 C56.4285058,3.00849444 58.0839892,2.453 60.24,2.453 C61.9780087,2.453 63.5729927,2.82699626 65.025,3.575 L63.606,6.974 C62.7259956,6.5339978 61.8130047,6.314 60.867,6.314 Z M71.006,9.416 C73.6900134,9.416 75.7909924,10.2354918 77.309,11.8745 C78.8270076,13.5135082 79.586,15.8069853 79.586,18.755 C79.586,20.6250093 79.2395035,22.258493 78.5465,23.6555 C77.8534965,25.052507 76.8635064,26.1359961 75.5765,26.906 C74.2894936,27.6760038 72.7660088,28.061 71.006,28.061 C68.3439867,28.061 66.2485076,27.2415082 64.7195,25.6025 C63.1904924,23.9634918 62.426,21.6700147 62.426,18.722 C62.426,16.8519906 62.7724965,15.218507 63.4655,13.8215 C64.1585035,12.424493 65.1484936,11.3410038 66.4355,10.571 C67.7225064,9.80099615 69.2459912,9.416 71.006,9.416 Z M71.006,13.244 C69.9499947,13.244 69.1580026,13.6894955 68.63,14.5805 C68.1019974,15.4715045 67.838,16.8519906 67.838,18.722 C67.838,20.6360096 68.0964974,22.0329956 68.6135,22.913 C69.1305026,23.7930044 69.9279946,24.233 71.006,24.233 C72.0620053,24.233 72.8539974,23.7875045 73.382,22.8965 C73.9100026,22.0054955 74.174,20.6250093 74.174,18.755 C74.174,16.8409904 73.9155026,15.4440044 73.3985,14.564 C72.8814974,13.6839956 72.0840054,13.244 71.006,13.244 Z M96.358,27.5 L90.451,27.5 L87.415,20.933 L84.445,27.5 L78.769,27.5 L84.412,18.293 L79.33,9.977 L85.171,9.977 L87.613,15.587 L89.956,9.977 L95.5,9.977 L90.715,18.128 L96.358,27.5 Z M109.706,23.21 L118.616,23.21 L118.055,27.5 L104.294,27.5 L104.294,4.631 L109.706,4.631 L109.706,23.21 Z M127.864,9.416 C130.548013,9.416 132.648992,10.2354918 134.167,11.8745 C135.685008,13.5135082 136.444,15.8069853 136.444,18.755 C136.444,20.6250093 136.097503,22.258493 135.4045,23.6555 C134.711497,25.052507 133.721506,26.1359961 132.4345,26.906 C131.147494,27.6760038 129.624009,28.061 127.864,28.061 C125.201987,28.061 123.106508,27.2415082 121.5775,25.6025 C120.048492,23.9634918 119.284,21.6700147 119.284,18.722 C119.284,16.8519906 119.630497,15.218507 120.3235,13.8215 C121.016503,12.424493 122.006494,11.3410038 123.2935,10.571 C124.580506,9.80099615 126.103991,9.416 127.864,9.416 Z M127.864,13.244 C126.807995,13.244 126.016003,13.6894955 125.488,14.5805 C124.959997,15.4715045 124.696,16.8519906 124.696,18.722 C124.696,20.6360096 124.954497,22.0329956 125.4715,22.913 C125.988503,23.7930044 126.785995,24.233 127.864,24.233 C128.920005,24.233 129.711997,23.7875045 130.24,22.8965 C130.768003,22.0054955 131.032,20.6250093 131.032,18.755 C131.032,16.8409904 130.773503,15.4440044 130.2565,14.564 C129.739497,13.6839956 128.942005,13.244 127.864,13.244 Z M146.286,9.416 C147.496006,9.416 148.584995,9.59199824 149.553,9.944 C150.521005,10.2960018 151.433996,10.8349964 152.292,11.561 L150.048,14.663 C148.947994,13.8269958 147.837006,13.409 146.715,13.409 C145.548994,13.409 144.669003,13.8379957 144.075,14.696 C143.480997,15.5540043 143.184,16.9399904 143.184,18.854 C143.184,20.7020092 143.480997,22.0109961 144.075,22.781 C144.669003,23.5510038 145.526994,23.936 146.649,23.936 C147.243003,23.936 147.781998,23.8425009 148.266,23.6555 C148.750002,23.4684991 149.332997,23.1660021 150.015,22.748 L152.292,25.982 C150.553991,27.3680069 148.585011,28.061 146.385,28.061 C144.602991,28.061 143.063006,27.6815038 141.765,26.9225 C140.466994,26.1634962 139.466004,25.0965069 138.762,23.7215 C138.057996,22.3464931 137.706,20.7350092 137.706,18.887 C137.706,17.0389908 138.057996,15.4000071 138.762,13.97 C139.466004,12.5399928 140.466994,11.423504 141.765,10.6205 C143.063006,9.81749598 144.569991,9.416 146.286,9.416 Z M158.867,27.5 L153.653,27.5 L153.653,3.014 L158.867,2.453 L158.867,27.5 Z M164.378,17.666 L170.12,27.5 L164.246,27.5 L159.032,17.93 L164.378,9.977 L169.691,9.977 L164.378,17.666 Z M181.303,9.416 C183.437011,9.416 185.070494,10.2299919 186.2035,11.858 C187.336506,13.4860081 187.903,15.7849851 187.903,18.755 C187.903,20.559009 187.622503,22.164993 187.0615,23.573 C186.500497,24.981007 185.697505,26.080996 184.6525,26.873 C183.607495,27.665004 182.370007,28.061 180.94,28.061 C179.971995,28.061 179.097504,27.8685019 178.3165,27.4835 C177.535496,27.0984981 176.881003,26.5430036 176.353,25.817 L176.089,27.5 L171.469,27.5 L171.469,3.014 L176.683,2.453 L176.683,11.759 C177.189003,11.0549965 177.859996,10.4885021 178.696,10.0595 C179.532004,9.63049785 180.400995,9.416 181.303,9.416 Z M179.455,24.266 C181.47901,24.266 182.491,22.4290184 182.491,18.755 C182.491,16.6869897 182.249002,15.251504 181.765,14.4485 C181.280998,13.645496 180.588005,13.244 179.686,13.244 C178.497994,13.244 177.497004,13.9259932 176.683,15.29 L176.683,22.55 C177.387004,23.6940057 178.310994,24.266 179.455,24.266 Z M197.91,9.416 C200.594013,9.416 202.694992,10.2354918 204.213,11.8745 C205.731008,13.5135082 206.49,15.8069853 206.49,18.755 C206.49,20.6250093 206.143503,22.258493 205.4505,23.6555 C204.757497,25.052507 203.767506,26.1359961 202.4805,26.906 C201.193494,27.6760038 199.670009,28.061 197.91,28.061 C195.247987,28.061 193.152508,27.2415082 191.6235,25.6025 C190.094492,23.9634918 189.33,21.6700147 189.33,18.722 C189.33,16.8519906 189.676497,15.218507 190.3695,13.8215 C191.062503,12.424493 192.052494,11.3410038 193.3395,10.571 C194.626506,9.80099615 196.149991,9.416 197.91,9.416 Z M197.91,13.244 C196.853995,13.244 196.062003,13.6894955 195.534,14.5805 C195.005997,15.4715045 194.742,16.8519906 194.742,18.722 C194.742,20.6360096 195.000497,22.0329956 195.5175,22.913 C196.034503,23.7930044 196.831995,24.233 197.91,24.233 C198.966005,24.233 199.757997,23.7875045 200.286,22.8965 C200.814003,22.0054955 201.078,20.6250093 201.078,18.755 C201.078,16.8409904 200.819503,15.4440044 200.3025,14.564 C199.785497,13.6839956 198.988005,13.244 197.91,13.244 Z M223.262,27.5 L217.355,27.5 L214.319,20.933 L211.349,27.5 L205.673,27.5 L211.316,18.293 L206.234,9.977 L212.075,9.977 L214.517,15.587 L216.86,9.977 L222.404,9.977 L217.619,18.128 L223.262,27.5 Z"/>
</svg>
